G04*
G04 #@! TF.GenerationSoftware,Altium Limited,Altium Designer,21.1.0 (24)*
G04*
G04 Layer_Color=8388736*
%FSLAX25Y25*%
%MOIN*%
G70*
G04*
G04 #@! TF.SameCoordinates,3801A82C-AC67-41FB-AA52-F7C80330A8D8*
G04*
G04*
G04 #@! TF.FilePolarity,Negative*
G04*
G01*
G75*
%ADD39R,0.04417X0.08394*%
%ADD40C,0.04737*%
%ADD41R,0.02769X0.03162*%
%ADD42R,0.04343X0.03950*%
%ADD43R,0.03950X0.05918*%
%ADD44R,0.09068X0.12611*%
%ADD45R,0.03162X0.02769*%
%ADD46R,0.05524X0.05524*%
%ADD47R,0.04816X0.08792*%
%ADD48R,0.02756X0.02559*%
%ADD49R,0.03123X0.02572*%
%ADD50R,0.03950X0.04343*%
D39*
X202755Y87240D02*
D03*
X210629D02*
D03*
X218503D02*
D03*
X226377D02*
D03*
X234251D02*
D03*
X242125D02*
D03*
X249999D02*
D03*
X257873D02*
D03*
X265747D02*
D03*
X273621D02*
D03*
X281495D02*
D03*
X289369D02*
D03*
X104330D02*
D03*
X112204D02*
D03*
X120078D02*
D03*
X127952D02*
D03*
X135826D02*
D03*
X143700D02*
D03*
X151574D02*
D03*
X159448D02*
D03*
X167322D02*
D03*
X175196D02*
D03*
X183070D02*
D03*
X190944D02*
D03*
X5905D02*
D03*
X13779D02*
D03*
X21653D02*
D03*
X29527D02*
D03*
X37401D02*
D03*
X45275D02*
D03*
X53149D02*
D03*
X61023D02*
D03*
X68897D02*
D03*
X76771D02*
D03*
X84645D02*
D03*
X92519D02*
D03*
X92522Y188350D02*
D03*
X84648D02*
D03*
X76774D02*
D03*
X68900D02*
D03*
X61026D02*
D03*
X53152D02*
D03*
X45278D02*
D03*
X37404D02*
D03*
X29530D02*
D03*
X21656D02*
D03*
X13782D02*
D03*
X5908D02*
D03*
X190947D02*
D03*
X183073D02*
D03*
X175199D02*
D03*
X167325D02*
D03*
X159451D02*
D03*
X151577D02*
D03*
X143703D02*
D03*
X135829D02*
D03*
X127955D02*
D03*
X120081D02*
D03*
X112207D02*
D03*
X104333D02*
D03*
X289372D02*
D03*
X281498D02*
D03*
X273624D02*
D03*
X265750D02*
D03*
X257876D02*
D03*
X250002D02*
D03*
X242128D02*
D03*
X234254D02*
D03*
X226380D02*
D03*
X218506D02*
D03*
X210632D02*
D03*
X202758D02*
D03*
D40*
X236221Y39369D02*
D03*
X59055D02*
D03*
Y236221D02*
D03*
X236221Y236220D02*
D03*
X279134Y133517D02*
D03*
Y128517D02*
D03*
X278347Y108046D02*
D03*
Y113046D02*
D03*
Y98046D02*
D03*
Y103046D02*
D03*
X288780Y123517D02*
D03*
Y128517D02*
D03*
Y133517D02*
D03*
Y108046D02*
D03*
Y113046D02*
D03*
Y98046D02*
D03*
Y103046D02*
D03*
X180709Y133517D02*
D03*
Y128517D02*
D03*
X179922Y108046D02*
D03*
Y113046D02*
D03*
Y98046D02*
D03*
Y103046D02*
D03*
X190355Y123517D02*
D03*
Y128517D02*
D03*
Y133517D02*
D03*
Y108046D02*
D03*
Y113046D02*
D03*
Y98046D02*
D03*
Y103046D02*
D03*
X82284Y133517D02*
D03*
Y128517D02*
D03*
X81497Y108046D02*
D03*
Y113046D02*
D03*
Y98046D02*
D03*
Y103046D02*
D03*
X91930Y123517D02*
D03*
Y128517D02*
D03*
Y133517D02*
D03*
Y108046D02*
D03*
Y113046D02*
D03*
Y98046D02*
D03*
Y103046D02*
D03*
X16143Y142073D02*
D03*
Y147073D02*
D03*
X16930Y167544D02*
D03*
Y162544D02*
D03*
Y177544D02*
D03*
Y172544D02*
D03*
X6497Y152073D02*
D03*
Y147073D02*
D03*
Y142073D02*
D03*
Y167544D02*
D03*
Y162544D02*
D03*
Y177544D02*
D03*
Y172544D02*
D03*
X114568Y142073D02*
D03*
Y147073D02*
D03*
X115355Y167544D02*
D03*
Y162544D02*
D03*
Y177544D02*
D03*
Y172544D02*
D03*
X104922Y152073D02*
D03*
Y147073D02*
D03*
Y142073D02*
D03*
Y167544D02*
D03*
Y162544D02*
D03*
Y177544D02*
D03*
Y172544D02*
D03*
X212993Y142073D02*
D03*
Y147073D02*
D03*
X213780Y167544D02*
D03*
Y162544D02*
D03*
Y177544D02*
D03*
Y172544D02*
D03*
X203347Y152073D02*
D03*
Y147073D02*
D03*
Y142073D02*
D03*
Y167544D02*
D03*
Y162544D02*
D03*
Y177544D02*
D03*
Y172544D02*
D03*
D41*
X272632Y118898D02*
D03*
Y122835D02*
D03*
X278938D02*
D03*
Y118898D02*
D03*
X282599Y122824D02*
D03*
Y118887D02*
D03*
X255906Y109109D02*
D03*
Y113046D02*
D03*
X174206Y118898D02*
D03*
Y122835D02*
D03*
X180512D02*
D03*
Y118898D02*
D03*
X184174Y122824D02*
D03*
Y118887D02*
D03*
X157481Y109109D02*
D03*
Y113046D02*
D03*
X75781Y118898D02*
D03*
Y122835D02*
D03*
X82087D02*
D03*
Y118898D02*
D03*
X85749Y122824D02*
D03*
Y118887D02*
D03*
X59056Y109109D02*
D03*
Y113046D02*
D03*
X22645Y156693D02*
D03*
Y152756D02*
D03*
X16340D02*
D03*
Y156693D02*
D03*
X12678Y152767D02*
D03*
Y156703D02*
D03*
X39371Y166481D02*
D03*
Y162544D02*
D03*
X121071Y156693D02*
D03*
Y152756D02*
D03*
X114765D02*
D03*
Y156693D02*
D03*
X111103Y152767D02*
D03*
Y156703D02*
D03*
X137796Y166481D02*
D03*
Y162544D02*
D03*
X219496Y156693D02*
D03*
Y152756D02*
D03*
X213190D02*
D03*
Y156693D02*
D03*
X209528Y152767D02*
D03*
Y156703D02*
D03*
X236221Y166481D02*
D03*
Y162544D02*
D03*
D42*
X279134Y127966D02*
D03*
Y134069D02*
D03*
X272632Y127980D02*
D03*
Y134082D02*
D03*
X180709Y127966D02*
D03*
Y134069D02*
D03*
X174206Y127980D02*
D03*
Y134082D02*
D03*
X82284Y127966D02*
D03*
Y134069D02*
D03*
X75781Y127980D02*
D03*
Y134082D02*
D03*
X16143Y147624D02*
D03*
Y141522D02*
D03*
X22645Y147611D02*
D03*
Y141508D02*
D03*
X114568Y147624D02*
D03*
Y141522D02*
D03*
X121071Y147611D02*
D03*
Y141508D02*
D03*
X212993Y147624D02*
D03*
Y141522D02*
D03*
X219496Y147611D02*
D03*
Y141508D02*
D03*
D43*
X236221Y120204D02*
D03*
X241143D02*
D03*
X246064D02*
D03*
X250985D02*
D03*
X255906D02*
D03*
X137796D02*
D03*
X142717D02*
D03*
X147639D02*
D03*
X152560D02*
D03*
X157481D02*
D03*
X39371D02*
D03*
X44292D02*
D03*
X49213D02*
D03*
X54135D02*
D03*
X59056D02*
D03*
X59056Y155386D02*
D03*
X54135D02*
D03*
X49213D02*
D03*
X44292D02*
D03*
X39371D02*
D03*
X157481D02*
D03*
X152560D02*
D03*
X147639D02*
D03*
X142717D02*
D03*
X137796D02*
D03*
X255906D02*
D03*
X250985D02*
D03*
X246064D02*
D03*
X241143D02*
D03*
X236221D02*
D03*
D44*
X265946Y131031D02*
D03*
X226182D02*
D03*
X167520D02*
D03*
X127757D02*
D03*
X69095D02*
D03*
X29331D02*
D03*
X29331Y144559D02*
D03*
X69095D02*
D03*
X127757D02*
D03*
X167520D02*
D03*
X226182D02*
D03*
X265946D02*
D03*
D45*
X287402Y118375D02*
D03*
X291339D02*
D03*
X266962Y103046D02*
D03*
X270899D02*
D03*
X266962Y98046D02*
D03*
X270899D02*
D03*
Y108046D02*
D03*
X266962D02*
D03*
X204400Y106874D02*
D03*
X200463D02*
D03*
X204400Y96727D02*
D03*
X200463D02*
D03*
X216211D02*
D03*
X220148D02*
D03*
X188977Y118375D02*
D03*
X192914D02*
D03*
X168537Y103046D02*
D03*
X172474D02*
D03*
X168537Y98046D02*
D03*
X172474D02*
D03*
Y108046D02*
D03*
X168537D02*
D03*
X105975Y106874D02*
D03*
X102038D02*
D03*
X105975Y96727D02*
D03*
X102038D02*
D03*
X117786D02*
D03*
X121723D02*
D03*
X90552Y118375D02*
D03*
X94489D02*
D03*
X70112Y103046D02*
D03*
X74049D02*
D03*
X70112Y98046D02*
D03*
X74049D02*
D03*
Y108046D02*
D03*
X70112D02*
D03*
X7550Y106874D02*
D03*
X3613D02*
D03*
X7550Y96727D02*
D03*
X3613D02*
D03*
X19361D02*
D03*
X23298D02*
D03*
X7875Y157215D02*
D03*
X3938D02*
D03*
X28315Y172544D02*
D03*
X24378D02*
D03*
X28315Y177544D02*
D03*
X24378D02*
D03*
Y167544D02*
D03*
X28315D02*
D03*
X90877Y168717D02*
D03*
X94814D02*
D03*
X90877Y178863D02*
D03*
X94814D02*
D03*
X79066D02*
D03*
X75129D02*
D03*
X106300Y157215D02*
D03*
X102363D02*
D03*
X126740Y172544D02*
D03*
X122803D02*
D03*
X126740Y177544D02*
D03*
X122803D02*
D03*
Y167544D02*
D03*
X126740D02*
D03*
X189302Y168717D02*
D03*
X193239D02*
D03*
X189302Y178863D02*
D03*
X193239D02*
D03*
X177491D02*
D03*
X173554D02*
D03*
X204725Y157215D02*
D03*
X200788D02*
D03*
X225165Y172544D02*
D03*
X221228D02*
D03*
X225165Y177544D02*
D03*
X221228D02*
D03*
Y167544D02*
D03*
X225165D02*
D03*
X287727Y168717D02*
D03*
X291664D02*
D03*
X287727Y178863D02*
D03*
X291664D02*
D03*
X275916D02*
D03*
X271979D02*
D03*
D46*
X200463Y133533D02*
D03*
Y119754D02*
D03*
X218180D02*
D03*
X102038Y133533D02*
D03*
Y119754D02*
D03*
X119755D02*
D03*
X3613Y133533D02*
D03*
Y119754D02*
D03*
X21329D02*
D03*
X94814Y142057D02*
D03*
Y155837D02*
D03*
X77097D02*
D03*
X193239Y142057D02*
D03*
Y155837D02*
D03*
X175523D02*
D03*
X291664Y142057D02*
D03*
Y155837D02*
D03*
X273948D02*
D03*
D47*
X202757Y87240D02*
D03*
X210631D02*
D03*
X218505D02*
D03*
X226379D02*
D03*
X234253D02*
D03*
X242127D02*
D03*
X250001D02*
D03*
X257875D02*
D03*
X265749D02*
D03*
X273623D02*
D03*
X281497D02*
D03*
X289371D02*
D03*
X104332D02*
D03*
X112206D02*
D03*
X120080D02*
D03*
X127954D02*
D03*
X135828D02*
D03*
X143702D02*
D03*
X151576D02*
D03*
X159450D02*
D03*
X167324D02*
D03*
X175198D02*
D03*
X183072D02*
D03*
X190946D02*
D03*
X5906D02*
D03*
X13780D02*
D03*
X21654D02*
D03*
X29528D02*
D03*
X37402D02*
D03*
X45276D02*
D03*
X53150D02*
D03*
X61024D02*
D03*
X68898D02*
D03*
X76772D02*
D03*
X84646D02*
D03*
X92520D02*
D03*
X92520Y188350D02*
D03*
X84646D02*
D03*
X76772D02*
D03*
X68898D02*
D03*
X61024D02*
D03*
X53150D02*
D03*
X45276D02*
D03*
X37402D02*
D03*
X29528D02*
D03*
X21654D02*
D03*
X13780D02*
D03*
X5906D02*
D03*
X190946D02*
D03*
X183072D02*
D03*
X175198D02*
D03*
X167324D02*
D03*
X159450D02*
D03*
X151576D02*
D03*
X143702D02*
D03*
X135828D02*
D03*
X127954D02*
D03*
X120080D02*
D03*
X112206D02*
D03*
X104332D02*
D03*
X289371D02*
D03*
X281497D02*
D03*
X273623D02*
D03*
X265749D02*
D03*
X257875D02*
D03*
X250001D02*
D03*
X242127D02*
D03*
X234253D02*
D03*
X226379D02*
D03*
X218505D02*
D03*
X210631D02*
D03*
X202757D02*
D03*
D48*
X250985Y109405D02*
D03*
Y112751D02*
D03*
X246064Y109405D02*
D03*
Y112751D02*
D03*
X241143Y109405D02*
D03*
Y112751D02*
D03*
X152560Y109405D02*
D03*
Y112751D02*
D03*
X147639Y109405D02*
D03*
Y112751D02*
D03*
X142717Y109405D02*
D03*
Y112751D02*
D03*
X54135Y109405D02*
D03*
Y112751D02*
D03*
X49213Y109405D02*
D03*
Y112751D02*
D03*
X44292Y109405D02*
D03*
Y112751D02*
D03*
X44292Y166186D02*
D03*
Y162839D02*
D03*
X49213Y166186D02*
D03*
Y162839D02*
D03*
X54135Y166186D02*
D03*
Y162839D02*
D03*
X142717Y166186D02*
D03*
Y162839D02*
D03*
X147639Y166186D02*
D03*
Y162839D02*
D03*
X152560Y166186D02*
D03*
Y162839D02*
D03*
X241143Y166186D02*
D03*
Y162839D02*
D03*
X246064Y166186D02*
D03*
Y162839D02*
D03*
X250985Y166186D02*
D03*
Y162839D02*
D03*
D49*
X210699Y112602D02*
D03*
X200463D02*
D03*
X112274D02*
D03*
X102038D02*
D03*
X13849D02*
D03*
X3613D02*
D03*
X84578Y162989D02*
D03*
X94814D02*
D03*
X183003D02*
D03*
X193239D02*
D03*
X281428D02*
D03*
X291664D02*
D03*
D50*
X214243Y102202D02*
D03*
X222117D02*
D03*
X218180Y112602D02*
D03*
X115817Y102202D02*
D03*
X123691D02*
D03*
X119755Y112602D02*
D03*
X17392Y102202D02*
D03*
X25266D02*
D03*
X21329Y112602D02*
D03*
X81034Y173389D02*
D03*
X73160D02*
D03*
X77097Y162989D02*
D03*
X179460Y173389D02*
D03*
X171586D02*
D03*
X175523Y162989D02*
D03*
X277885Y173389D02*
D03*
X270011D02*
D03*
X273948Y162989D02*
D03*
M02*
