M48
;Layer_Color=9474304
;FILE_FORMAT=2:5
INCH,TZ
;TYPE=PLATED
T1F00S00C0.01181
T2F00S00C0.01968
T3F00S00C0.02362
%
T01
X199384Y81256
X198638Y85660
X193885Y90856
X212324Y92716
X212324Y96555
X218289Y101200
X216261Y105401
X221255Y110100
Y112602
X222025Y119213
X225257Y123639
X223415Y126635
X220148Y125774
X216554Y126419
X212324Y125480
Y120622
X214638Y116349
X230749Y115374
X235490
X243610
X247655Y115252
X248511Y106238
X245650Y101926
X241218Y100197
X250985Y99818
X261665Y98913
Y101284
X260270Y103191
X264519Y104317
X271054Y105523
X264587Y94106
X261730Y96480
X259284Y96004
X261969Y86736
X253997Y86866
X246418Y85886
X245650Y90100
X238601Y85035
X230749Y89046
X226699Y92794
X224057Y95441
X223415Y88538
X222139Y86232
X221436Y90358
X214135Y86865
X206662Y81142
X231654Y101019
X230455Y110094
X237339Y108046
X259560Y112131
X263535Y120204
X266997Y120498
X269799Y122397
X267831Y127681
X263830Y127561
X259725Y128661
X259757Y132019
X256990Y134046
X254016Y135866
X251221Y134843
X248583Y131850
X242123Y135176
X236851
X234050Y135317
X229192Y135735
X223415Y135732
X224047Y140709
X228298Y140816
X232370Y143572
X232402Y146929
X231755Y150795
X228298Y148030
X224296Y147909
X222329Y153193
X225130Y155093
X228592Y155386
X232567Y163460
X231857Y172400
X230463Y174306
Y176678
X230397Y179110
X232844Y179587
X227540Y181485
X230158Y188854
X238131Y188724
X245709Y189705
X246477Y185491
Y173664
X250910Y175393
X241143Y175773
X243616Y169353
X244472Y160339
X248517Y160217
X256637
X261379
X261672Y165497
X254788Y167544
X260473Y174571
X261379Y186545
X265428Y182797
X268071Y180150
X268712Y187053
X269988Y189358
X270691Y185233
X277993Y188725
X279804Y182874
X279804Y179035
X273838Y174390
X275867Y170189
X270872Y165490
Y162989
X270102Y156378
X266871Y151951
X268712Y148956
X271979Y149817
X275573Y149172
X279804Y150110
Y154969
X277489Y159242
X288901Y150054
X290287Y141339
X286574
X282757Y141286
X282383Y135957
X282208Y132531
X275622Y132293
X275509Y135735
X272507Y131457
X268080Y134882
X263830Y134774
X262936Y139855
X258077Y140274
X255276Y140415
X250004
X240906Y140748
X238111Y139724
X235138Y141545
X236910Y147073
X243544Y143740
X219621Y144134
X216505Y143297
X216618Y139855
X209745Y139634
X209920Y143060
X209370Y134305
X205553Y134252
X201840
X203227Y125536
X191862Y141339
X190475Y150054
X206690Y154327
X215079Y157638
X216410Y150012
X221073Y170067
X227608Y171274
X221438Y190587
X215001Y187927
X212242Y182916
X205172Y181652
X199817Y184734
X195064Y189931
X194318Y194334
X205291Y194459
X253527Y190556
X285466Y194449
X292744Y194334
X293490Y189931
X268712Y139858
X275717Y125579
X277048Y117953
X285438Y121264
X260373Y124796
X255217Y128517
X270690Y85004
X277126Y87664
X279886Y92674
X286955Y93938
X292310Y90856
X286836Y81131
X188411
X188530Y93938
X181460Y92674
X178701Y87664
X172265Y85004
X163544Y86736
X155572Y86866
X147993Y85886
X147225Y90100
Y101926
X142793Y100197
X152560Y99818
X150086Y106238
X149230Y115252
X145185Y115374
X137065
X132324
X132030Y110094
X138914Y108046
X133229Y101019
X132324Y89046
X128274Y92794
X125631Y95441
X124990Y88538
X123714Y86232
X123011Y90358
X115709Y86865
X113898Y92716
X113899Y96555
X119864Y101200
X117835Y105401
X122830Y110100
Y112602
X123600Y119213
X126831Y123639
X124990Y126635
X121723Y125774
X118129Y126419
X113899Y125480
Y120622
X116213Y116349
X104802Y125536
X103415Y134252
X107128
X110945Y134305
X111319Y139634
X111495Y143060
X118080Y143297
X118193Y139855
X121195Y144134
X125622Y140709
X129873Y140816
X130766Y135735
X135625Y135317
X138426Y135176
X143698
X142481Y140748
X139686Y139724
X136713Y141545
X133945Y143572
X133977Y146929
X133330Y150795
X129873Y148030
X125871Y147909
X123903Y153193
X126705Y155093
X130167Y155386
X134142Y163460
X133432Y172400
X132037Y174306
Y176678
X131972Y179110
X134418Y179587
X129115Y181485
X131733Y188854
X139706Y188724
X147284Y189705
X148052Y185491
Y173664
X152485Y175393
X142717Y175773
X145191Y169353
X146047Y160339
X150092Y160217
X158212
X162953
X163247Y165497
X156363Y167544
X162048Y174571
X162953Y186545
X167003Y182797
X169646Y180150
X170287Y187053
X171563Y189358
X172266Y185233
X179568Y188725
X181379Y182874
X181379Y179035
X175413Y174390
X177442Y170189
X172447Y165490
Y162989
X171677Y156378
X168446Y151951
X170287Y148956
X173554Y149817
X177148Y149172
X181379Y150110
Y154969
X179064Y159242
X184332Y141286
X188149Y141339
X183958Y135957
X183783Y132531
X177197Y132293
X177084Y135735
X174082Y131457
X169655Y134882
X165405Y134774
X164511Y139855
X159652Y140274
X156851Y140415
X151579
X152796Y134843
X155591Y135866
X158564Y134046
X161332Y132019
X161300Y128661
X161948Y124796
X165405Y127561
X169406Y127681
X171374Y122397
X168572Y120498
X165110Y120204
X161135Y112131
X161845Y103191
X163240Y101284
Y98913
X163305Y96480
X160859Y96004
X166162Y94106
X166094Y104317
X172629Y105523
X178623Y117953
X177292Y125579
X187012Y121264
X170287Y139858
X156792Y128517
X150158Y131850
X145119Y143740
X138485Y147073
X117985Y150012
X116654Y157638
X108265Y154327
X92050Y150054
X82953Y150110
Y154969
X80639Y159242
X73252Y156378
X74022Y162989
Y165490
X64822Y165497
X64528Y160217
X59787
X51667
X47622Y160339
X46766Y169353
X49627Y173664
X54059Y175393
X44292Y175773
X35993Y179587
X35007Y172400
X35717Y163460
X34904Y150795
X35552Y146929
X35520Y143572
X38288Y141545
X41261Y139724
X44056Y140748
X46694Y143740
X53154Y140415
X58426
X61227Y140274
X66085Y139855
X71862Y139858
X71230Y134882
X66979Y134774
X62907Y132019
X62875Y128661
X63522Y124796
X66979Y127561
X70981Y127681
X72949Y122397
X70147Y120498
X66685Y120204
X62710Y112131
X63420Y103191
X64815Y101284
Y98913
X64880Y96480
X62433Y96004
X67737Y94106
X65119Y86736
X57146Y86866
X49568Y85886
X48800Y90100
Y101926
X44368Y100197
X54135Y99818
X51661Y106238
X50805Y115252
X46760Y115374
X38640
X40489Y108046
X34804Y101019
X41750Y85035
X73839Y85004
X80276Y87664
X83035Y92674
X90105Y93938
X95460Y90856
X100213Y85660
X100959Y81256
X108237Y81142
X89986Y81131
X74204Y105523
X67669Y104317
X80198Y117953
X78867Y125579
X78772Y132293
X78659Y135735
X85533Y135957
X85357Y132531
X85907Y141286
X89724Y141339
X93437
X78723Y149172
X75129Y149817
X71862Y148956
X70021Y151951
X75657Y131457
X60139Y134046
X57166Y135866
X54371Y134843
X51733Y131850
X45273Y135176
X40001
X37200Y135317
X40060Y147073
X58367Y128517
X88587Y121264
X124990Y135732
X122648Y170067
X129183Y171274
X123013Y190587
X116576Y187927
X113817Y182916
X106747Y181652
X101392Y184734
X96639Y189931
X95893Y194334
X88615Y194449
X81142Y188725
X82954Y182874
X82953Y179035
X76988Y174390
X79016Y170189
X71221Y180150
X68578Y182797
X71862Y187053
X73138Y189358
X73841Y185233
X64528Y186545
X56676Y190556
X48859Y189705
X49627Y185491
X41280Y188724
X63623Y174571
X57938Y167544
X106866Y194459
X155102Y190556
X187040Y194449
X140176Y85035
X33898Y89046
X29849Y92794
X27206Y95441
X26565Y88538
X25289Y86232
X24586Y90358
X17284Y86865
X15473Y92716
X15473Y96555
X21439Y101200
X19410Y105401
X24405Y110100
Y112602
X25175Y119213
X28406Y123639
X26565Y126635
X23298Y125774
X19704Y126419
X15473Y125480
Y120622
X17788Y116349
X33898Y115374
X33605Y110094
X32341Y135735
X26565Y135732
X27197Y140709
X31447Y140816
Y148030
X27446Y147909
X25478Y153193
X28280Y155093
X31742Y155386
X18229Y157638
X19560Y150012
X19655Y143297
X19768Y139855
X12894Y139634
X13069Y143060
X12520Y134305
X8703Y134252
X4990
X6377Y125536
X9839Y154327
X22770Y144134
X24223Y170067
X30758Y171274
X33612Y174306
Y176678
X33547Y179110
X30690Y181485
X33308Y188854
X24587Y190587
X18151Y187927
X15391Y182916
X8322Y181652
X2967Y184734
X8441Y194459
X9812Y81142
X2533Y81256
X1788Y85660
T02
X202835Y82756
X237459Y81559
X207312Y121419
X190867Y192835
X254669Y194032
X289292Y192835
X284816Y154172
X186391
X156244Y194032
X92442Y192835
X57818Y194032
X87966Y154172
X108886Y121419
X104410Y82756
X139034Y81559
X40608
X5985Y82756
X10461Y121419
T03
X190355Y98046
Y103046
Y108046
Y113046
Y123517
Y128517
Y133517
X203347Y142073
Y147073
Y152073
Y162544
Y167544
Y172544
Y177544
X213780
Y172544
Y167544
Y162544
X212993Y147073
Y142073
X279134Y133517
Y128517
X288780Y128517
Y133517
Y123517
Y113046
Y108046
Y103046
Y98046
X278347
Y103046
Y108046
Y113046
X179922
Y108046
Y103046
Y98046
X180709Y128517
Y133517
X114568Y142073
Y147073
X104922Y147073
Y142073
Y152073
Y162544
Y167544
Y172544
Y177544
X115355
Y172544
Y167544
Y162544
X91930Y133517
Y128517
Y123517
Y113046
Y108046
Y103046
Y98046
X81497
Y103046
Y108046
Y113046
X82284Y128517
Y133517
X16143Y142073
Y147073
X6497Y147073
Y142073
Y152073
Y162544
Y167544
Y172544
Y177544
X16930
Y172544
Y167544
Y162544
M30
