G04*
G04 #@! TF.GenerationSoftware,Altium Limited,Altium Designer,21.1.0 (24)*
G04*
G04 Layer_Color=128*
%FSLAX25Y25*%
%MOIN*%
G70*
G04*
G04 #@! TF.SameCoordinates,3801A82C-AC67-41FB-AA52-F7C80330A8D8*
G04*
G04*
G04 #@! TF.FilePolarity,Positive*
G04*
G01*
G75*
%ADD10C,0.03937*%
%ADD12R,0.01968X0.02362*%
%ADD16R,0.02362X0.01968*%
%ADD26R,0.00984X0.03347*%
%ADD27R,0.03347X0.00984*%
%ADD28R,0.25591X0.25591*%
%ADD29R,0.05000X0.05000*%
%ADD30R,0.03051X0.03445*%
%ADD31R,0.02165X0.03937*%
D10*
X236221Y39369D02*
D03*
X59055D02*
D03*
Y236221D02*
D03*
X236221Y236220D02*
D03*
D12*
X200052Y134305D02*
D03*
Y130368D02*
D03*
X203701Y134305D02*
D03*
Y130368D02*
D03*
X207351Y134305D02*
D03*
Y130368D02*
D03*
X239298D02*
D03*
Y134305D02*
D03*
X231897D02*
D03*
Y130368D02*
D03*
X244416Y134305D02*
D03*
Y130368D02*
D03*
X264126Y102141D02*
D03*
Y98204D02*
D03*
X266536Y85496D02*
D03*
Y81559D02*
D03*
X258662Y85496D02*
D03*
Y81559D02*
D03*
X250788D02*
D03*
Y85496D02*
D03*
X241111D02*
D03*
Y81559D02*
D03*
X235040Y85496D02*
D03*
Y81559D02*
D03*
X101627Y134305D02*
D03*
Y130368D02*
D03*
X105276Y134305D02*
D03*
Y130368D02*
D03*
X108926Y134305D02*
D03*
Y130368D02*
D03*
X140873D02*
D03*
Y134305D02*
D03*
X133471D02*
D03*
Y130368D02*
D03*
X145991Y134305D02*
D03*
Y130368D02*
D03*
X165700Y102141D02*
D03*
Y98204D02*
D03*
X168111Y85496D02*
D03*
Y81559D02*
D03*
X160237Y85496D02*
D03*
Y81559D02*
D03*
X152363D02*
D03*
Y85496D02*
D03*
X142686D02*
D03*
Y81559D02*
D03*
X136615Y85496D02*
D03*
Y81559D02*
D03*
X3201Y134305D02*
D03*
Y130368D02*
D03*
X6851Y134305D02*
D03*
Y130368D02*
D03*
X10501Y134305D02*
D03*
Y130368D02*
D03*
X42448D02*
D03*
Y134305D02*
D03*
X35046D02*
D03*
Y130368D02*
D03*
X47566Y134305D02*
D03*
Y130368D02*
D03*
X67275Y102141D02*
D03*
Y98204D02*
D03*
X69686Y85496D02*
D03*
Y81559D02*
D03*
X61812Y85496D02*
D03*
Y81559D02*
D03*
X53938D02*
D03*
Y85496D02*
D03*
X44261D02*
D03*
Y81559D02*
D03*
X38190Y85496D02*
D03*
Y81559D02*
D03*
X95225Y141286D02*
D03*
Y145223D02*
D03*
X91576Y141286D02*
D03*
Y145223D02*
D03*
X87926Y141286D02*
D03*
Y145223D02*
D03*
X55979D02*
D03*
Y141286D02*
D03*
X63381D02*
D03*
Y145223D02*
D03*
X50861Y141286D02*
D03*
Y145223D02*
D03*
X31152Y173450D02*
D03*
Y177387D02*
D03*
X28741Y190095D02*
D03*
Y194032D02*
D03*
X36615Y190095D02*
D03*
Y194032D02*
D03*
X44489D02*
D03*
Y190095D02*
D03*
X54166D02*
D03*
Y194032D02*
D03*
X60237Y190095D02*
D03*
Y194032D02*
D03*
X193650Y141286D02*
D03*
Y145223D02*
D03*
X190001Y141286D02*
D03*
Y145223D02*
D03*
X186351Y141286D02*
D03*
Y145223D02*
D03*
X154404D02*
D03*
Y141286D02*
D03*
X161806D02*
D03*
Y145223D02*
D03*
X149286Y141286D02*
D03*
Y145223D02*
D03*
X129577Y173450D02*
D03*
Y177387D02*
D03*
X127166Y190095D02*
D03*
Y194032D02*
D03*
X135040Y190095D02*
D03*
Y194032D02*
D03*
X142914D02*
D03*
Y190095D02*
D03*
X152591D02*
D03*
Y194032D02*
D03*
X158662Y190095D02*
D03*
Y194032D02*
D03*
X292076Y141286D02*
D03*
Y145223D02*
D03*
X288426Y141286D02*
D03*
Y145223D02*
D03*
X284776Y141286D02*
D03*
Y145223D02*
D03*
X252829D02*
D03*
Y141286D02*
D03*
X260231D02*
D03*
Y145223D02*
D03*
X247711Y141286D02*
D03*
Y145223D02*
D03*
X228002Y173450D02*
D03*
Y177387D02*
D03*
X225591Y190095D02*
D03*
Y194032D02*
D03*
X233465Y190095D02*
D03*
Y194032D02*
D03*
X241339D02*
D03*
Y190095D02*
D03*
X251016D02*
D03*
Y194032D02*
D03*
X257087Y190095D02*
D03*
Y194032D02*
D03*
D16*
X273731Y106114D02*
D03*
X269794D02*
D03*
Y90366D02*
D03*
X273731D02*
D03*
X203480Y109424D02*
D03*
X207417D02*
D03*
X203480Y105775D02*
D03*
X207417D02*
D03*
X203480Y102125D02*
D03*
X207417D02*
D03*
X267440Y114509D02*
D03*
X263503D02*
D03*
X216261Y109095D02*
D03*
X212324D02*
D03*
Y103407D02*
D03*
X216261D02*
D03*
X231103Y85614D02*
D03*
X227166D02*
D03*
X212324Y123565D02*
D03*
X216261D02*
D03*
X212324Y118750D02*
D03*
X216261D02*
D03*
X212324Y113946D02*
D03*
X216261D02*
D03*
X267440Y110651D02*
D03*
X263503D02*
D03*
X216261Y98937D02*
D03*
X212324D02*
D03*
X216261Y94095D02*
D03*
X212324D02*
D03*
X216261Y89282D02*
D03*
X212324D02*
D03*
X212324Y84449D02*
D03*
X216261D02*
D03*
X263503Y118356D02*
D03*
X267440D02*
D03*
X175306Y106114D02*
D03*
X171369D02*
D03*
Y90366D02*
D03*
X175306D02*
D03*
X105055Y109424D02*
D03*
X108992D02*
D03*
X105055Y105775D02*
D03*
X108992D02*
D03*
X105055Y102125D02*
D03*
X108992D02*
D03*
X169015Y114509D02*
D03*
X165078D02*
D03*
X117835Y109095D02*
D03*
X113899D02*
D03*
Y103407D02*
D03*
X117835D02*
D03*
X132678Y85614D02*
D03*
X128741D02*
D03*
X113899Y123565D02*
D03*
X117835D02*
D03*
X113899Y118750D02*
D03*
X117835D02*
D03*
X113899Y113946D02*
D03*
X117835D02*
D03*
X169015Y110651D02*
D03*
X165078D02*
D03*
X117835Y98937D02*
D03*
X113899D02*
D03*
X117835Y94095D02*
D03*
X113899D02*
D03*
X117835Y89282D02*
D03*
X113899D02*
D03*
X113899Y84449D02*
D03*
X117835D02*
D03*
X165078Y118356D02*
D03*
X169015D02*
D03*
X76881Y106114D02*
D03*
X72944D02*
D03*
Y90366D02*
D03*
X76881D02*
D03*
X6629Y109424D02*
D03*
X10566D02*
D03*
X6629Y105775D02*
D03*
X10566D02*
D03*
X6629Y102125D02*
D03*
X10566D02*
D03*
X70590Y114509D02*
D03*
X66653D02*
D03*
X19410Y109095D02*
D03*
X15473D02*
D03*
Y103407D02*
D03*
X19410D02*
D03*
X34253Y85614D02*
D03*
X30316D02*
D03*
X15473Y123565D02*
D03*
X19410D02*
D03*
X15473Y118750D02*
D03*
X19410D02*
D03*
X15473Y113946D02*
D03*
X19410D02*
D03*
X70590Y110651D02*
D03*
X66653D02*
D03*
X19410Y98937D02*
D03*
X15473D02*
D03*
X19410Y94095D02*
D03*
X15473D02*
D03*
X19410Y89282D02*
D03*
X15473D02*
D03*
X15473Y84449D02*
D03*
X19410D02*
D03*
X66653Y118356D02*
D03*
X70590D02*
D03*
X21546Y169477D02*
D03*
X25483D02*
D03*
Y185225D02*
D03*
X21546D02*
D03*
X91797Y166166D02*
D03*
X87860D02*
D03*
X91797Y169816D02*
D03*
X87860D02*
D03*
X91797Y173466D02*
D03*
X87860D02*
D03*
X27837Y161081D02*
D03*
X31774D02*
D03*
X79016Y166496D02*
D03*
X82953D02*
D03*
Y172183D02*
D03*
X79016D02*
D03*
X64174Y189977D02*
D03*
X68111D02*
D03*
X82953Y152026D02*
D03*
X79016D02*
D03*
X82953Y156841D02*
D03*
X79016D02*
D03*
X82953Y161644D02*
D03*
X79016D02*
D03*
X27837Y164939D02*
D03*
X31774D02*
D03*
X79016Y176654D02*
D03*
X82953D02*
D03*
X79016Y181496D02*
D03*
X82953D02*
D03*
X79016Y186309D02*
D03*
X82953D02*
D03*
X82953Y191142D02*
D03*
X79016D02*
D03*
X31774Y157235D02*
D03*
X27837D02*
D03*
X119971Y169477D02*
D03*
X123908D02*
D03*
Y185225D02*
D03*
X119971D02*
D03*
X190222Y166166D02*
D03*
X186285D02*
D03*
X190222Y169816D02*
D03*
X186285D02*
D03*
X190222Y173466D02*
D03*
X186285D02*
D03*
X126262Y161081D02*
D03*
X130200D02*
D03*
X177442Y166496D02*
D03*
X181379D02*
D03*
Y172183D02*
D03*
X177442D02*
D03*
X162599Y189977D02*
D03*
X166536D02*
D03*
X181379Y152026D02*
D03*
X177442D02*
D03*
X181379Y156841D02*
D03*
X177442D02*
D03*
X181379Y161644D02*
D03*
X177442D02*
D03*
X126262Y164939D02*
D03*
X130200D02*
D03*
X177442Y176654D02*
D03*
X181379D02*
D03*
X177442Y181496D02*
D03*
X181379D02*
D03*
X177442Y186309D02*
D03*
X181379D02*
D03*
X181379Y191142D02*
D03*
X177442D02*
D03*
X130200Y157235D02*
D03*
X126262D02*
D03*
X218396Y169477D02*
D03*
X222333D02*
D03*
Y185225D02*
D03*
X218396D02*
D03*
X288648Y166166D02*
D03*
X284711D02*
D03*
X288648Y169816D02*
D03*
X284711D02*
D03*
X288648Y173466D02*
D03*
X284711D02*
D03*
X224688Y161081D02*
D03*
X228625D02*
D03*
X275867Y166496D02*
D03*
X279804D02*
D03*
Y172183D02*
D03*
X275867D02*
D03*
X261024Y189977D02*
D03*
X264961D02*
D03*
X279804Y152026D02*
D03*
X275867D02*
D03*
X279804Y156841D02*
D03*
X275867D02*
D03*
X279804Y161644D02*
D03*
X275867D02*
D03*
X224688Y164939D02*
D03*
X228625D02*
D03*
X275867Y176654D02*
D03*
X279804D02*
D03*
X275867Y181496D02*
D03*
X279804D02*
D03*
X275867Y186309D02*
D03*
X279804D02*
D03*
X279804Y191142D02*
D03*
X275867D02*
D03*
X228625Y157235D02*
D03*
X224688D02*
D03*
D26*
X228747Y124746D02*
D03*
X230322D02*
D03*
X231897D02*
D03*
X233471D02*
D03*
X235046D02*
D03*
X236621D02*
D03*
X238196D02*
D03*
X239771D02*
D03*
X241345D02*
D03*
X242920D02*
D03*
X244495D02*
D03*
X246070D02*
D03*
X247645D02*
D03*
X249219D02*
D03*
X250794D02*
D03*
X252369D02*
D03*
X228747Y93250D02*
D03*
X230322D02*
D03*
X231897D02*
D03*
X233471D02*
D03*
X235046D02*
D03*
X238196D02*
D03*
X239771D02*
D03*
X241345D02*
D03*
X242920D02*
D03*
X244495D02*
D03*
X246070D02*
D03*
X249219D02*
D03*
X250794D02*
D03*
X252369D02*
D03*
X236621D02*
D03*
X247645D02*
D03*
X130322Y124746D02*
D03*
X131897D02*
D03*
X133471D02*
D03*
X135046D02*
D03*
X136621D02*
D03*
X138196D02*
D03*
X139771D02*
D03*
X141345D02*
D03*
X142920D02*
D03*
X144495D02*
D03*
X146070D02*
D03*
X147645D02*
D03*
X149219D02*
D03*
X150794D02*
D03*
X152369D02*
D03*
X153944D02*
D03*
X130322Y93250D02*
D03*
X131897D02*
D03*
X133471D02*
D03*
X135046D02*
D03*
X136621D02*
D03*
X139771D02*
D03*
X141345D02*
D03*
X142920D02*
D03*
X144495D02*
D03*
X146070D02*
D03*
X147645D02*
D03*
X150794D02*
D03*
X152369D02*
D03*
X153944D02*
D03*
X138196D02*
D03*
X149219D02*
D03*
X31897Y124746D02*
D03*
X33471D02*
D03*
X35046D02*
D03*
X36621D02*
D03*
X38196D02*
D03*
X39771D02*
D03*
X41345D02*
D03*
X42920D02*
D03*
X44495D02*
D03*
X46070D02*
D03*
X47645D02*
D03*
X49219D02*
D03*
X50794D02*
D03*
X52369D02*
D03*
X53944D02*
D03*
X55519D02*
D03*
X31897Y93250D02*
D03*
X33471D02*
D03*
X35046D02*
D03*
X36621D02*
D03*
X38196D02*
D03*
X41345D02*
D03*
X42920D02*
D03*
X44495D02*
D03*
X46070D02*
D03*
X47645D02*
D03*
X49219D02*
D03*
X52369D02*
D03*
X53944D02*
D03*
X55519D02*
D03*
X39771D02*
D03*
X50794D02*
D03*
X66530Y150845D02*
D03*
X64955D02*
D03*
X63381D02*
D03*
X61806D02*
D03*
X60231D02*
D03*
X58656D02*
D03*
X57081D02*
D03*
X55507D02*
D03*
X53932D02*
D03*
X52357D02*
D03*
X50782D02*
D03*
X49207D02*
D03*
X47633D02*
D03*
X46058D02*
D03*
X44483D02*
D03*
X42908D02*
D03*
X66530Y182341D02*
D03*
X64955D02*
D03*
X63381D02*
D03*
X61806D02*
D03*
X60231D02*
D03*
X57081D02*
D03*
X55507D02*
D03*
X53932D02*
D03*
X52357D02*
D03*
X50782D02*
D03*
X49207D02*
D03*
X46058D02*
D03*
X44483D02*
D03*
X42908D02*
D03*
X58656D02*
D03*
X47633D02*
D03*
X164955Y150845D02*
D03*
X163381D02*
D03*
X161806D02*
D03*
X160231D02*
D03*
X158656D02*
D03*
X157081D02*
D03*
X155507D02*
D03*
X153932D02*
D03*
X152357D02*
D03*
X150782D02*
D03*
X149207D02*
D03*
X147633D02*
D03*
X146058D02*
D03*
X144483D02*
D03*
X142908D02*
D03*
X141333D02*
D03*
X164955Y182341D02*
D03*
X163381D02*
D03*
X161806D02*
D03*
X160231D02*
D03*
X158656D02*
D03*
X155507D02*
D03*
X153932D02*
D03*
X152357D02*
D03*
X150782D02*
D03*
X149207D02*
D03*
X147633D02*
D03*
X144483D02*
D03*
X142908D02*
D03*
X141333D02*
D03*
X157081D02*
D03*
X146058D02*
D03*
X263381Y150845D02*
D03*
X261806D02*
D03*
X260231D02*
D03*
X258656D02*
D03*
X257081D02*
D03*
X255507D02*
D03*
X253932D02*
D03*
X252357D02*
D03*
X250782D02*
D03*
X249207D02*
D03*
X247633D02*
D03*
X246058D02*
D03*
X244483D02*
D03*
X242908D02*
D03*
X241333D02*
D03*
X239759D02*
D03*
X263381Y182341D02*
D03*
X261806D02*
D03*
X260231D02*
D03*
X258656D02*
D03*
X257081D02*
D03*
X253932D02*
D03*
X252357D02*
D03*
X250782D02*
D03*
X249207D02*
D03*
X247633D02*
D03*
X246058D02*
D03*
X242908D02*
D03*
X241333D02*
D03*
X239759D02*
D03*
X255507D02*
D03*
X244483D02*
D03*
D27*
X224810Y119234D02*
D03*
Y117659D02*
D03*
Y116084D02*
D03*
Y114509D02*
D03*
Y112935D02*
D03*
Y111360D02*
D03*
Y109785D02*
D03*
Y106635D02*
D03*
Y105061D02*
D03*
Y103486D02*
D03*
Y97187D02*
D03*
X256306D02*
D03*
Y98761D02*
D03*
Y100336D02*
D03*
Y101911D02*
D03*
Y103486D02*
D03*
Y105061D02*
D03*
Y106635D02*
D03*
Y108210D02*
D03*
Y109785D02*
D03*
Y111360D02*
D03*
Y112935D02*
D03*
Y116084D02*
D03*
Y117659D02*
D03*
Y119234D02*
D03*
Y120809D02*
D03*
X224810Y98761D02*
D03*
Y100336D02*
D03*
Y101911D02*
D03*
Y120809D02*
D03*
Y108210D02*
D03*
X256306Y114509D02*
D03*
X126385Y119234D02*
D03*
Y117659D02*
D03*
Y116084D02*
D03*
Y114509D02*
D03*
Y112935D02*
D03*
Y111360D02*
D03*
Y109785D02*
D03*
Y106635D02*
D03*
Y105061D02*
D03*
Y103486D02*
D03*
Y97187D02*
D03*
X157881D02*
D03*
Y98761D02*
D03*
Y100336D02*
D03*
Y101911D02*
D03*
Y103486D02*
D03*
Y105061D02*
D03*
Y106635D02*
D03*
Y108210D02*
D03*
Y109785D02*
D03*
Y111360D02*
D03*
Y112935D02*
D03*
Y116084D02*
D03*
Y117659D02*
D03*
Y119234D02*
D03*
Y120809D02*
D03*
X126385Y98761D02*
D03*
Y100336D02*
D03*
Y101911D02*
D03*
Y120809D02*
D03*
Y108210D02*
D03*
X157881Y114509D02*
D03*
X27960Y119234D02*
D03*
Y117659D02*
D03*
Y116084D02*
D03*
Y114509D02*
D03*
Y112935D02*
D03*
Y111360D02*
D03*
Y109785D02*
D03*
Y106635D02*
D03*
Y105061D02*
D03*
Y103486D02*
D03*
Y97187D02*
D03*
X59456D02*
D03*
Y98761D02*
D03*
Y100336D02*
D03*
Y101911D02*
D03*
Y103486D02*
D03*
Y105061D02*
D03*
Y106635D02*
D03*
Y108210D02*
D03*
Y109785D02*
D03*
Y111360D02*
D03*
Y112935D02*
D03*
Y116084D02*
D03*
Y117659D02*
D03*
Y119234D02*
D03*
Y120809D02*
D03*
X27960Y98761D02*
D03*
Y100336D02*
D03*
Y101911D02*
D03*
Y120809D02*
D03*
Y108210D02*
D03*
X59456Y114509D02*
D03*
X70467Y156357D02*
D03*
Y157931D02*
D03*
Y159506D02*
D03*
Y161081D02*
D03*
Y162656D02*
D03*
Y164231D02*
D03*
Y165805D02*
D03*
Y168955D02*
D03*
Y170530D02*
D03*
Y172105D02*
D03*
Y178404D02*
D03*
X38971D02*
D03*
Y176829D02*
D03*
Y175254D02*
D03*
Y173679D02*
D03*
Y172105D02*
D03*
Y170530D02*
D03*
Y168955D02*
D03*
Y167380D02*
D03*
Y165805D02*
D03*
Y164231D02*
D03*
Y162656D02*
D03*
Y159506D02*
D03*
Y157931D02*
D03*
Y156357D02*
D03*
Y154782D02*
D03*
X70467Y176829D02*
D03*
Y175254D02*
D03*
Y173679D02*
D03*
Y154782D02*
D03*
Y167380D02*
D03*
X38971Y161081D02*
D03*
X168892Y156357D02*
D03*
Y157931D02*
D03*
Y159506D02*
D03*
Y161081D02*
D03*
Y162656D02*
D03*
Y164231D02*
D03*
Y165805D02*
D03*
Y168955D02*
D03*
Y170530D02*
D03*
Y172105D02*
D03*
Y178404D02*
D03*
X137396D02*
D03*
Y176829D02*
D03*
Y175254D02*
D03*
Y173679D02*
D03*
Y172105D02*
D03*
Y170530D02*
D03*
Y168955D02*
D03*
Y167380D02*
D03*
Y165805D02*
D03*
Y164231D02*
D03*
Y162656D02*
D03*
Y159506D02*
D03*
Y157931D02*
D03*
Y156357D02*
D03*
Y154782D02*
D03*
X168892Y176829D02*
D03*
Y175254D02*
D03*
Y173679D02*
D03*
Y154782D02*
D03*
Y167380D02*
D03*
X137396Y161081D02*
D03*
X267318Y156357D02*
D03*
Y157931D02*
D03*
Y159506D02*
D03*
Y161081D02*
D03*
Y162656D02*
D03*
Y164231D02*
D03*
Y165805D02*
D03*
Y168955D02*
D03*
Y170530D02*
D03*
Y172105D02*
D03*
Y178404D02*
D03*
X235822D02*
D03*
Y176829D02*
D03*
Y175254D02*
D03*
Y173679D02*
D03*
Y172105D02*
D03*
Y170530D02*
D03*
Y168955D02*
D03*
Y167380D02*
D03*
Y165805D02*
D03*
Y164231D02*
D03*
Y162656D02*
D03*
Y159506D02*
D03*
Y157931D02*
D03*
Y156357D02*
D03*
Y154782D02*
D03*
X267318Y176829D02*
D03*
Y175254D02*
D03*
Y173679D02*
D03*
Y154782D02*
D03*
Y167380D02*
D03*
X235822Y161081D02*
D03*
D28*
X240558Y108998D02*
D03*
X142133D02*
D03*
X43708D02*
D03*
X54719Y166593D02*
D03*
X153144D02*
D03*
X251570D02*
D03*
D29*
X202757Y86646D02*
D03*
Y95646D02*
D03*
X104332Y86646D02*
D03*
Y95646D02*
D03*
X5906Y86646D02*
D03*
Y95646D02*
D03*
X92520Y188945D02*
D03*
Y179945D02*
D03*
X190946Y188945D02*
D03*
Y179945D02*
D03*
X289371Y188945D02*
D03*
Y179945D02*
D03*
D30*
X273731Y95474D02*
D03*
X269893Y100494D02*
D03*
Y95474D02*
D03*
X273731Y100494D02*
D03*
X175306Y95474D02*
D03*
X171468Y100494D02*
D03*
Y95474D02*
D03*
X175306Y100494D02*
D03*
X76881Y95474D02*
D03*
X73042Y100494D02*
D03*
Y95474D02*
D03*
X76881Y100494D02*
D03*
X21546Y180116D02*
D03*
X25384Y175097D02*
D03*
Y180116D02*
D03*
X21546Y175097D02*
D03*
X119971Y180116D02*
D03*
X123810Y175097D02*
D03*
Y180116D02*
D03*
X119971Y175097D02*
D03*
X218396Y180116D02*
D03*
X222235Y175097D02*
D03*
Y180116D02*
D03*
X218396Y175097D02*
D03*
D31*
X207351Y124850D02*
D03*
Y114614D02*
D03*
X199871Y124850D02*
D03*
Y114614D02*
D03*
X203611D02*
D03*
X108926Y124850D02*
D03*
Y114614D02*
D03*
X101445Y124850D02*
D03*
Y114614D02*
D03*
X105186D02*
D03*
X10501Y124850D02*
D03*
Y114614D02*
D03*
X3020Y124850D02*
D03*
Y114614D02*
D03*
X6761D02*
D03*
X87926Y150740D02*
D03*
Y160976D02*
D03*
X95406Y150740D02*
D03*
Y160976D02*
D03*
X91666D02*
D03*
X186351Y150740D02*
D03*
Y160976D02*
D03*
X193832Y150740D02*
D03*
Y160976D02*
D03*
X190092D02*
D03*
X284776Y150740D02*
D03*
Y160976D02*
D03*
X292257Y150740D02*
D03*
Y160976D02*
D03*
X288517D02*
D03*
M02*
