G04*
G04 #@! TF.GenerationSoftware,Altium Limited,Altium Designer,21.1.0 (24)*
G04*
G04 Layer_Color=16711935*
%FSLAX25Y25*%
%MOIN*%
G70*
G04*
G04 #@! TF.SameCoordinates,E17B2B31-19E6-4FC6-9C55-F749E7A6AAE1*
G04*
G04*
G04 #@! TF.FilePolarity,Positive*
G04*
G01*
G75*
%ADD36C,0.00500*%
%ADD39C,0.00394*%
%ADD61C,0.01000*%
%ADD62C,0.00500*%
D36*
X283465Y39369D02*
G03*
X283465Y39369I-7874J0D01*
G01*
X27559D02*
G03*
X27559Y39369I-7874J0D01*
G01*
Y236221D02*
G03*
X27559Y236221I-7874J0D01*
G01*
X283465Y236220D02*
G03*
X283465Y236220I-7874J0D01*
G01*
X1Y0D02*
Y78740D01*
X0Y0D02*
X295276D01*
Y78740D01*
X98425Y0D02*
X98425Y275590D01*
X295275Y98425D02*
X295275Y78741D01*
X295274Y118111D02*
X295274Y98427D01*
X295275Y137795D02*
X295275Y118111D01*
X295273Y157482D02*
X295273Y137798D01*
X295274Y177166D02*
X295274Y157482D01*
X295275Y196850D02*
X295275Y177166D01*
X-1Y98425D02*
X-1Y78741D01*
X-2Y118111D02*
X-2Y98427D01*
X-1Y137795D02*
X-1Y118111D01*
X-2Y157482D02*
X-2Y137798D01*
X-2Y177166D02*
X-2Y157482D01*
X-1Y196850D02*
X-1Y177166D01*
X1Y78740D02*
X295276D01*
X1Y196850D02*
X295277D01*
X1D02*
Y216535D01*
X196850Y0D02*
X196850Y275590D01*
X1Y137795D02*
X295277D01*
X2Y275590D02*
X295277D01*
X2Y216535D02*
Y275590D01*
X295277Y196850D02*
Y275590D01*
X295276Y78740D02*
X196851D01*
X196851Y78740D02*
Y137795D01*
X196851Y78740D02*
Y137795D01*
X295276Y137795D02*
X196851D01*
X295276Y78740D02*
Y137795D01*
X196851Y78740D02*
X98426D01*
X98426Y78740D02*
Y137795D01*
X98426Y78740D02*
Y137795D01*
X196851Y137795D02*
X98426D01*
X196851Y78740D02*
Y137795D01*
X98426Y78740D02*
X1D01*
X1Y78740D02*
Y137795D01*
X1Y78740D02*
Y137795D01*
X98426Y137795D02*
X1D01*
X98426Y78740D02*
Y137795D01*
X1Y196850D02*
X98426D01*
X98426Y196850D02*
Y137795D01*
X98426Y196850D02*
Y137795D01*
X1Y137795D02*
X98426D01*
X1Y196850D02*
Y137795D01*
X98426Y196850D02*
X196851D01*
X196851Y196850D02*
Y137795D01*
X196851Y196850D02*
Y137795D01*
X98426Y137795D02*
X196851D01*
X98426Y196850D02*
Y137795D01*
X196851Y196850D02*
X295276D01*
X295276Y196850D02*
Y137795D01*
X295276Y196850D02*
Y137795D01*
X196851Y137795D02*
X295276D01*
X196851Y196850D02*
Y137795D01*
D39*
X141621Y-18111D02*
X139747Y-22047D01*
X138997Y-18111D02*
X141621D01*
X144751D02*
X142877D01*
X142689Y-19798D01*
X142877Y-19610D01*
X143439Y-19423D01*
X144001D01*
X144564Y-19610D01*
X144939Y-19985D01*
X145126Y-20547D01*
Y-20922D01*
X144939Y-21485D01*
X144564Y-21859D01*
X144001Y-22047D01*
X143439D01*
X142877Y-21859D01*
X142689Y-21672D01*
X142502Y-21297D01*
X146007Y-19423D02*
Y-22047D01*
Y-20173D02*
X146569Y-19610D01*
X146944Y-19423D01*
X147506D01*
X147881Y-19610D01*
X148069Y-20173D01*
Y-22047D01*
Y-20173D02*
X148631Y-19610D01*
X149006Y-19423D01*
X149568D01*
X149943Y-19610D01*
X150131Y-20173D01*
Y-22047D01*
X151368Y-19423D02*
Y-22047D01*
Y-20173D02*
X151930Y-19610D01*
X152305Y-19423D01*
X152867D01*
X153242Y-19610D01*
X153429Y-20173D01*
Y-22047D01*
Y-20173D02*
X153992Y-19610D01*
X154367Y-19423D01*
X154929D01*
X155304Y-19610D01*
X155491Y-20173D01*
Y-22047D01*
X-21259Y131779D02*
X-17323Y129904D01*
X-21259Y129154D02*
Y131779D01*
Y133784D02*
X-21072Y133222D01*
X-20510Y132847D01*
X-19572Y132659D01*
X-19010D01*
X-18073Y132847D01*
X-17511Y133222D01*
X-17323Y133784D01*
Y134159D01*
X-17511Y134721D01*
X-18073Y135096D01*
X-19010Y135284D01*
X-19572D01*
X-20510Y135096D01*
X-21072Y134721D01*
X-21259Y134159D01*
Y133784D01*
X-19947Y136164D02*
X-17323D01*
X-19198D02*
X-19760Y136727D01*
X-19947Y137102D01*
Y137664D01*
X-19760Y138039D01*
X-19198Y138226D01*
X-17323D01*
X-19198D02*
X-19760Y138789D01*
X-19947Y139163D01*
Y139726D01*
X-19760Y140101D01*
X-19198Y140288D01*
X-17323D01*
X-19947Y141525D02*
X-17323D01*
X-19198D02*
X-19760Y142087D01*
X-19947Y142462D01*
Y143025D01*
X-19760Y143400D01*
X-19198Y143587D01*
X-17323D01*
X-19198D02*
X-19760Y144149D01*
X-19947Y144524D01*
Y145087D01*
X-19760Y145461D01*
X-19198Y145649D01*
X-17323D01*
X254517Y72197D02*
Y72010D01*
X254330Y71635D01*
X254142Y71448D01*
X253767Y71260D01*
X253018D01*
X252643Y71448D01*
X252455Y71635D01*
X252268Y72010D01*
Y72385D01*
X252455Y72760D01*
X252830Y73322D01*
X254705Y75196D01*
X252080D01*
X248950Y71260D02*
X250825D01*
X251012Y72947D01*
X250825Y72760D01*
X250262Y72572D01*
X249700D01*
X249138Y72760D01*
X248763Y73135D01*
X248575Y73697D01*
Y74072D01*
X248763Y74634D01*
X249138Y75009D01*
X249700Y75196D01*
X250262D01*
X250825Y75009D01*
X251012Y74822D01*
X251200Y74447D01*
X247694Y72572D02*
Y75196D01*
Y73322D02*
X247132Y72760D01*
X246757Y72572D01*
X246195D01*
X245820Y72760D01*
X245633Y73322D01*
Y75196D01*
Y73322D02*
X245070Y72760D01*
X244696Y72572D01*
X244133D01*
X243758Y72760D01*
X243571Y73322D01*
Y75196D01*
X242334Y72572D02*
Y75196D01*
Y73322D02*
X241772Y72760D01*
X241397Y72572D01*
X240834D01*
X240459Y72760D01*
X240272Y73322D01*
Y75196D01*
Y73322D02*
X239710Y72760D01*
X239335Y72572D01*
X238773D01*
X238398Y72760D01*
X238210Y73322D01*
Y75196D01*
X300357Y99936D02*
X300170Y100311D01*
X299607Y100873D01*
X303544D01*
X299607Y105072D02*
Y103198D01*
X301294Y103010D01*
X301107Y103198D01*
X300920Y103760D01*
Y104322D01*
X301107Y104884D01*
X301482Y105259D01*
X302044Y105447D01*
X302419D01*
X302981Y105259D01*
X303356Y104884D01*
X303544Y104322D01*
Y103760D01*
X303356Y103198D01*
X303169Y103010D01*
X302794Y102823D01*
X300920Y106328D02*
X303544D01*
X301669D02*
X301107Y106890D01*
X300920Y107265D01*
Y107827D01*
X301107Y108202D01*
X301669Y108389D01*
X303544D01*
X301669D02*
X301107Y108952D01*
X300920Y109327D01*
Y109889D01*
X301107Y110264D01*
X301669Y110451D01*
X303544D01*
X300920Y111688D02*
X303544D01*
X301669D02*
X301107Y112251D01*
X300920Y112626D01*
Y113188D01*
X301107Y113563D01*
X301669Y113750D01*
X303544D01*
X301669D02*
X301107Y114312D01*
X300920Y114687D01*
Y115250D01*
X301107Y115624D01*
X301669Y115812D01*
X303544D01*
X156092Y72197D02*
Y72010D01*
X155905Y71635D01*
X155717Y71448D01*
X155342Y71260D01*
X154593D01*
X154218Y71448D01*
X154030Y71635D01*
X153843Y72010D01*
Y72385D01*
X154030Y72760D01*
X154405Y73322D01*
X156280Y75196D01*
X153655D01*
X150525Y71260D02*
X152400D01*
X152587Y72947D01*
X152400Y72760D01*
X151837Y72572D01*
X151275D01*
X150713Y72760D01*
X150338Y73135D01*
X150150Y73697D01*
Y74072D01*
X150338Y74634D01*
X150713Y75009D01*
X151275Y75196D01*
X151837D01*
X152400Y75009D01*
X152587Y74822D01*
X152774Y74447D01*
X149269Y72572D02*
Y75196D01*
Y73322D02*
X148707Y72760D01*
X148332Y72572D01*
X147770D01*
X147395Y72760D01*
X147207Y73322D01*
Y75196D01*
Y73322D02*
X146645Y72760D01*
X146270Y72572D01*
X145708D01*
X145333Y72760D01*
X145146Y73322D01*
Y75196D01*
X143909Y72572D02*
Y75196D01*
Y73322D02*
X143346Y72760D01*
X142972Y72572D01*
X142409D01*
X142034Y72760D01*
X141847Y73322D01*
Y75196D01*
Y73322D02*
X141285Y72760D01*
X140910Y72572D01*
X140347D01*
X139972Y72760D01*
X139785Y73322D01*
Y75196D01*
X201932Y99936D02*
X201745Y100311D01*
X201182Y100873D01*
X205118D01*
X201182Y105072D02*
Y103198D01*
X202869Y103010D01*
X202682Y103198D01*
X202494Y103760D01*
Y104322D01*
X202682Y104884D01*
X203057Y105259D01*
X203619Y105447D01*
X203994D01*
X204556Y105259D01*
X204931Y104884D01*
X205118Y104322D01*
Y103760D01*
X204931Y103198D01*
X204744Y103010D01*
X204369Y102823D01*
X202494Y106328D02*
X205118D01*
X203244D02*
X202682Y106890D01*
X202494Y107265D01*
Y107827D01*
X202682Y108202D01*
X203244Y108389D01*
X205118D01*
X203244D02*
X202682Y108952D01*
X202494Y109327D01*
Y109889D01*
X202682Y110264D01*
X203244Y110451D01*
X205118D01*
X202494Y111688D02*
X205118D01*
X203244D02*
X202682Y112251D01*
X202494Y112626D01*
Y113188D01*
X202682Y113563D01*
X203244Y113750D01*
X205118D01*
X203244D02*
X202682Y114312D01*
X202494Y114687D01*
Y115250D01*
X202682Y115624D01*
X203244Y115812D01*
X205118D01*
X57667Y72197D02*
Y72010D01*
X57479Y71635D01*
X57292Y71448D01*
X56917Y71260D01*
X56167D01*
X55792Y71448D01*
X55605Y71635D01*
X55418Y72010D01*
Y72385D01*
X55605Y72760D01*
X55980Y73322D01*
X57854Y75196D01*
X55230D01*
X52100Y71260D02*
X53974D01*
X54162Y72947D01*
X53974Y72760D01*
X53412Y72572D01*
X52850D01*
X52287Y72760D01*
X51912Y73135D01*
X51725Y73697D01*
Y74072D01*
X51912Y74634D01*
X52287Y75009D01*
X52850Y75196D01*
X53412D01*
X53974Y75009D01*
X54162Y74822D01*
X54349Y74447D01*
X50844Y72572D02*
Y75196D01*
Y73322D02*
X50282Y72760D01*
X49907Y72572D01*
X49345D01*
X48970Y72760D01*
X48782Y73322D01*
Y75196D01*
Y73322D02*
X48220Y72760D01*
X47845Y72572D01*
X47283D01*
X46908Y72760D01*
X46720Y73322D01*
Y75196D01*
X45483Y72572D02*
Y75196D01*
Y73322D02*
X44921Y72760D01*
X44546Y72572D01*
X43984D01*
X43609Y72760D01*
X43422Y73322D01*
Y75196D01*
Y73322D02*
X42859Y72760D01*
X42485Y72572D01*
X41922D01*
X41547Y72760D01*
X41360Y73322D01*
Y75196D01*
X103507Y99936D02*
X103319Y100311D01*
X102757Y100873D01*
X106693D01*
X102757Y105072D02*
Y103198D01*
X104444Y103010D01*
X104257Y103198D01*
X104069Y103760D01*
Y104322D01*
X104257Y104884D01*
X104631Y105259D01*
X105194Y105447D01*
X105569D01*
X106131Y105259D01*
X106506Y104884D01*
X106693Y104322D01*
Y103760D01*
X106506Y103198D01*
X106318Y103010D01*
X105944Y102823D01*
X104069Y106328D02*
X106693D01*
X104819D02*
X104257Y106890D01*
X104069Y107265D01*
Y107827D01*
X104257Y108202D01*
X104819Y108389D01*
X106693D01*
X104819D02*
X104257Y108952D01*
X104069Y109327D01*
Y109889D01*
X104257Y110264D01*
X104819Y110451D01*
X106693D01*
X104069Y111688D02*
X106693D01*
X104819D02*
X104257Y112251D01*
X104069Y112626D01*
Y113188D01*
X104257Y113563D01*
X104819Y113750D01*
X106693D01*
X104819D02*
X104257Y114312D01*
X104069Y114687D01*
Y115250D01*
X104257Y115624D01*
X104819Y115812D01*
X106693D01*
X40760Y203393D02*
Y203580D01*
X40947Y203955D01*
X41135Y204143D01*
X41510Y204330D01*
X42259D01*
X42634Y204143D01*
X42822Y203955D01*
X43009Y203580D01*
Y203206D01*
X42822Y202831D01*
X42447Y202269D01*
X40573Y200394D01*
X43197D01*
X46327Y204330D02*
X44452D01*
X44265Y202643D01*
X44452Y202831D01*
X45015Y203018D01*
X45577D01*
X46139Y202831D01*
X46514Y202456D01*
X46702Y201894D01*
Y201519D01*
X46514Y200956D01*
X46139Y200582D01*
X45577Y200394D01*
X45015D01*
X44452Y200582D01*
X44265Y200769D01*
X44078Y201144D01*
X47583Y203018D02*
Y200394D01*
Y202269D02*
X48145Y202831D01*
X48520Y203018D01*
X49082D01*
X49457Y202831D01*
X49644Y202269D01*
Y200394D01*
Y202269D02*
X50207Y202831D01*
X50582Y203018D01*
X51144D01*
X51519Y202831D01*
X51706Y202269D01*
Y200394D01*
X52943Y203018D02*
Y200394D01*
Y202269D02*
X53506Y202831D01*
X53881Y203018D01*
X54443D01*
X54818Y202831D01*
X55005Y202269D01*
Y200394D01*
Y202269D02*
X55567Y202831D01*
X55942Y203018D01*
X56505D01*
X56879Y202831D01*
X57067Y202269D01*
Y200394D01*
X-5080Y175654D02*
X-4893Y175280D01*
X-4330Y174717D01*
X-8266D01*
X-4330Y170519D02*
Y172393D01*
X-6017Y172581D01*
X-5830Y172393D01*
X-5642Y171831D01*
Y171268D01*
X-5830Y170706D01*
X-6205Y170331D01*
X-6767Y170144D01*
X-7142D01*
X-7704Y170331D01*
X-8079Y170706D01*
X-8266Y171268D01*
Y171831D01*
X-8079Y172393D01*
X-7892Y172581D01*
X-7517Y172768D01*
X-5642Y169263D02*
X-8266D01*
X-6392D02*
X-5830Y168701D01*
X-5642Y168326D01*
Y167763D01*
X-5830Y167388D01*
X-6392Y167201D01*
X-8266D01*
X-6392D02*
X-5830Y166639D01*
X-5642Y166264D01*
Y165702D01*
X-5830Y165327D01*
X-6392Y165139D01*
X-8266D01*
X-5642Y163902D02*
X-8266D01*
X-6392D02*
X-5830Y163340D01*
X-5642Y162965D01*
Y162403D01*
X-5830Y162028D01*
X-6392Y161840D01*
X-8266D01*
X-6392D02*
X-5830Y161278D01*
X-5642Y160903D01*
Y160341D01*
X-5830Y159966D01*
X-6392Y159779D01*
X-8266D01*
X139185Y203393D02*
Y203580D01*
X139373Y203955D01*
X139560Y204143D01*
X139935Y204330D01*
X140685D01*
X141060Y204143D01*
X141247Y203955D01*
X141434Y203580D01*
Y203206D01*
X141247Y202831D01*
X140872Y202269D01*
X138998Y200394D01*
X141622D01*
X144752Y204330D02*
X142878D01*
X142690Y202643D01*
X142878Y202831D01*
X143440Y203018D01*
X144002D01*
X144564Y202831D01*
X144939Y202456D01*
X145127Y201894D01*
Y201519D01*
X144939Y200956D01*
X144564Y200582D01*
X144002Y200394D01*
X143440D01*
X142878Y200582D01*
X142690Y200769D01*
X142503Y201144D01*
X146008Y203018D02*
Y200394D01*
Y202269D02*
X146570Y202831D01*
X146945Y203018D01*
X147507D01*
X147882Y202831D01*
X148070Y202269D01*
Y200394D01*
Y202269D02*
X148632Y202831D01*
X149007Y203018D01*
X149569D01*
X149944Y202831D01*
X150131Y202269D01*
Y200394D01*
X151368Y203018D02*
Y200394D01*
Y202269D02*
X151931Y202831D01*
X152306Y203018D01*
X152868D01*
X153243Y202831D01*
X153430Y202269D01*
Y200394D01*
Y202269D02*
X153993Y202831D01*
X154367Y203018D01*
X154930D01*
X155305Y202831D01*
X155492Y202269D01*
Y200394D01*
X93345Y175654D02*
X93533Y175280D01*
X94095Y174717D01*
X90159D01*
X94095Y170519D02*
Y172393D01*
X92408Y172581D01*
X92595Y172393D01*
X92783Y171831D01*
Y171268D01*
X92595Y170706D01*
X92220Y170331D01*
X91658Y170144D01*
X91283D01*
X90721Y170331D01*
X90346Y170706D01*
X90159Y171268D01*
Y171831D01*
X90346Y172393D01*
X90534Y172581D01*
X90908Y172768D01*
X92783Y169263D02*
X90159D01*
X92033D02*
X92595Y168701D01*
X92783Y168326D01*
Y167763D01*
X92595Y167388D01*
X92033Y167201D01*
X90159D01*
X92033D02*
X92595Y166639D01*
X92783Y166264D01*
Y165702D01*
X92595Y165327D01*
X92033Y165139D01*
X90159D01*
X92783Y163902D02*
X90159D01*
X92033D02*
X92595Y163340D01*
X92783Y162965D01*
Y162403D01*
X92595Y162028D01*
X92033Y161840D01*
X90159D01*
X92033D02*
X92595Y161278D01*
X92783Y160903D01*
Y160341D01*
X92595Y159966D01*
X92033Y159779D01*
X90159D01*
X237610Y203393D02*
Y203580D01*
X237798Y203955D01*
X237985Y204143D01*
X238360Y204330D01*
X239110D01*
X239485Y204143D01*
X239672Y203955D01*
X239860Y203580D01*
Y203206D01*
X239672Y202831D01*
X239297Y202269D01*
X237423Y200394D01*
X240047D01*
X243177Y204330D02*
X241303D01*
X241115Y202643D01*
X241303Y202831D01*
X241865Y203018D01*
X242427D01*
X242990Y202831D01*
X243365Y202456D01*
X243552Y201894D01*
Y201519D01*
X243365Y200956D01*
X242990Y200582D01*
X242427Y200394D01*
X241865D01*
X241303Y200582D01*
X241115Y200769D01*
X240928Y201144D01*
X244433Y203018D02*
Y200394D01*
Y202269D02*
X244995Y202831D01*
X245370Y203018D01*
X245933D01*
X246307Y202831D01*
X246495Y202269D01*
Y200394D01*
Y202269D02*
X247057Y202831D01*
X247432Y203018D01*
X247994D01*
X248369Y202831D01*
X248557Y202269D01*
Y200394D01*
X249794Y203018D02*
Y200394D01*
Y202269D02*
X250356Y202831D01*
X250731Y203018D01*
X251293D01*
X251668Y202831D01*
X251855Y202269D01*
Y200394D01*
Y202269D02*
X252418Y202831D01*
X252793Y203018D01*
X253355D01*
X253730Y202831D01*
X253917Y202269D01*
Y200394D01*
X191770Y175654D02*
X191958Y175280D01*
X192520Y174717D01*
X188584D01*
X192520Y170519D02*
Y172393D01*
X190833Y172581D01*
X191021Y172393D01*
X191208Y171831D01*
Y171268D01*
X191021Y170706D01*
X190646Y170331D01*
X190083Y170144D01*
X189708D01*
X189146Y170331D01*
X188771Y170706D01*
X188584Y171268D01*
Y171831D01*
X188771Y172393D01*
X188959Y172581D01*
X189334Y172768D01*
X191208Y169263D02*
X188584D01*
X190458D02*
X191021Y168701D01*
X191208Y168326D01*
Y167763D01*
X191021Y167388D01*
X190458Y167201D01*
X188584D01*
X190458D02*
X191021Y166639D01*
X191208Y166264D01*
Y165702D01*
X191021Y165327D01*
X190458Y165139D01*
X188584D01*
X191208Y163902D02*
X188584D01*
X190458D02*
X191021Y163340D01*
X191208Y162965D01*
Y162403D01*
X191021Y162028D01*
X190458Y161840D01*
X188584D01*
X190458D02*
X191021Y161278D01*
X191208Y160903D01*
Y160341D01*
X191021Y159966D01*
X190458Y159779D01*
X188584D01*
D61*
X295276Y-20685D02*
Y-18685D01*
X0Y-20685D02*
Y-18685D01*
X291339Y-20997D02*
X295276Y-19685D01*
X291339Y-18373D02*
X295276Y-19685D01*
X0D02*
X3937Y-20997D01*
X0Y-19685D02*
X3937Y-18373D01*
X157279Y-19685D02*
X295276D01*
X0D02*
X137997D01*
X-20685Y275590D02*
X-18685D01*
X-20685Y-0D02*
X-18685D01*
X-19685Y275590D02*
X-18373Y271654D01*
X-20997D02*
X-19685Y275590D01*
Y-0D02*
X-18373Y3937D01*
X-20997D02*
X-19685Y-0D01*
Y147436D02*
Y275590D01*
Y-0D02*
Y128154D01*
X302182Y137795D02*
X300182D01*
X302182Y78740D02*
X300182D01*
X302494Y133858D02*
X301182Y137795D01*
X299869Y133858D02*
X301182Y137795D01*
Y78740D02*
X302494Y82677D01*
X301182Y78740D02*
X299869Y82677D01*
X301182Y117599D02*
Y137795D01*
Y78740D02*
Y98936D01*
X196851Y71835D02*
Y73835D01*
X295276Y71835D02*
Y73835D01*
X196851Y72835D02*
X200788Y74147D01*
Y71522D02*
X196851Y72835D01*
X295276D02*
X291339Y74147D01*
Y71522D02*
X295276Y72835D01*
X236423D02*
X196851D01*
X295276D02*
X255705D01*
X203757Y137795D02*
X201757D01*
X203757Y78740D02*
X201757D01*
X204069Y133858D02*
X202757Y137795D01*
X201444Y133858D02*
X202757Y137795D01*
Y78740D02*
X204069Y82677D01*
X202757Y78740D02*
X201444Y82677D01*
X202757Y117599D02*
Y137795D01*
Y78740D02*
Y98936D01*
X98426Y71835D02*
Y73835D01*
X196851Y71835D02*
Y73835D01*
X98426Y72835D02*
X102363Y74147D01*
Y71522D02*
X98426Y72835D01*
X196851D02*
X192914Y74147D01*
Y71522D02*
X196851Y72835D01*
X137998D02*
X98426D01*
X196851D02*
X157280D01*
X105332Y137795D02*
X103331D01*
X105332Y78740D02*
X103331D01*
X105644Y133858D02*
X104332Y137795D01*
X103019Y133858D02*
X104332Y137795D01*
Y78740D02*
X105644Y82677D01*
X104332Y78740D02*
X103019Y82677D01*
X104332Y117599D02*
Y137795D01*
Y78740D02*
Y98936D01*
X1Y71835D02*
Y73835D01*
X98426Y71835D02*
Y73835D01*
X1Y72835D02*
X3938Y74147D01*
Y71522D02*
X1Y72835D01*
X98426D02*
X94489Y74147D01*
Y71522D02*
X98426Y72835D01*
X39573D02*
X1D01*
X98426D02*
X58854D01*
X-6905Y137795D02*
X-4905D01*
X-6905Y196850D02*
X-4905D01*
X-7217Y141732D02*
X-5905Y137795D01*
X-4592Y141732D02*
X-5905Y137795D01*
Y196850D02*
X-7217Y192913D01*
X-5905Y196850D02*
X-4592Y192913D01*
X-5905Y157991D02*
Y137795D01*
Y196850D02*
Y176655D01*
X98426Y203756D02*
Y201756D01*
X1Y203756D02*
Y201756D01*
X98426Y202756D02*
X94489Y201444D01*
Y204068D02*
X98426Y202756D01*
X1D02*
X3938Y201444D01*
Y204068D02*
X1Y202756D01*
X58854D02*
X98426D01*
X1D02*
X39573D01*
X91521Y137795D02*
X93520D01*
X91521Y196850D02*
X93520D01*
X91208Y141732D02*
X92520Y137795D01*
X93833Y141732D02*
X92520Y137795D01*
Y196850D02*
X91208Y192913D01*
X92520Y196850D02*
X93833Y192913D01*
X92520Y157991D02*
Y137795D01*
Y196850D02*
Y176655D01*
X196851Y203756D02*
Y201756D01*
X98426Y203756D02*
Y201756D01*
X196851Y202756D02*
X192914Y201444D01*
Y204068D02*
X196851Y202756D01*
X98426D02*
X102363Y201444D01*
Y204068D02*
X98426Y202756D01*
X157280D02*
X196851D01*
X98426D02*
X137998D01*
X189946Y137795D02*
X191946D01*
X189946Y196850D02*
X191946D01*
X189633Y141732D02*
X190946Y137795D01*
X192258Y141732D02*
X190946Y137795D01*
Y196850D02*
X189633Y192913D01*
X190946Y196850D02*
X192258Y192913D01*
X190946Y157991D02*
Y137795D01*
Y196850D02*
Y176655D01*
X295276Y203756D02*
Y201756D01*
X196851Y203756D02*
Y201756D01*
X295276Y202756D02*
X291339Y201444D01*
Y204068D02*
X295276Y202756D01*
X196851D02*
X200788Y201444D01*
Y204068D02*
X196851Y202756D01*
X255705D02*
X295276D01*
X196851D02*
X236423D01*
D62*
X204123Y137795D02*
D03*
D03*
X105698D02*
D03*
D03*
X7272D02*
D03*
D03*
X91154Y137795D02*
D03*
D03*
X189579D02*
D03*
D03*
X288005D02*
D03*
D03*
M02*
