M48
;Layer_Color=9474304
;FILE_FORMAT=2:5
INCH,TZ
;TYPE=PLATED
T1F00S00C0.01181
T2F00S00C0.01968
T3F00S00C0.01988
T4F00S00C0.02362
%
T01
X193885Y81064
X199384Y81256
X198638Y85660
X193583Y90787
X212324Y92716
X212324Y96555
X210960Y102699
X219065Y101962
X216123Y108661
X221255Y110100
Y112602
X222025Y119213
X225257Y123639
X223415Y126635
X220148Y125774
X216554Y126419
X212324Y125480
Y120622
X203611Y123711
X201261Y127205
Y130236
X201840Y134252
X194573Y132255
X191862Y141339
X192442Y145354
Y148386
X199130Y143335
X209920Y143060
X209745Y139634
X216618Y139855
X216505Y143297
X219621Y144134
X224047Y140709
X228298Y140816
X232370Y143572
X231792Y147008
X231755Y150795
X226727Y151736
X225130Y155093
X228592Y155386
X228298Y148030
X224296Y147909
X222430Y153092
X216250Y149272
X207964Y148956
X206332Y153949
X215355Y157480
X215726Y170067
X221073
X227608Y171471
X231857Y172400
X230463Y174306
X230584Y176821
X230392Y179175
X232944Y179750
X227442Y181437
X229863Y187995
X230768Y190177
X237737Y190138
X245613Y190729
X246285Y185491
X253833Y185605
X254092Y190636
X261359Y186521
X268712
X270119Y188858
X270709Y184764
X265428Y182797
X268071Y180150
X273062Y173628
X281167Y172892
X279804Y179035
X279804Y182874
X277993Y188725
X285466Y194449
X292744Y194334
X293490Y189931
X276005Y166929
X270872Y165490
Y162989
X270102Y156378
X266871Y151951
X268712Y148956
X271979Y149817
X275573Y149172
X279804Y150110
Y154969
X288517Y151879
X290867Y148386
Y145354
X290287Y141339
X292998Y132255
X282208Y132531
X282383Y135957
X275509Y135735
X275622Y132293
X272507Y131457
X268080Y134882
X263830Y134774
X259757Y132019
X260335Y128583
X260373Y124796
X265401Y123854
X266997Y120498
X263535Y120204
X263830Y127561
X267831Y127681
X269697Y122499
X275877Y126319
X284163Y126635
X285796Y121642
X276772Y118110
X276401Y105523
X271054
X264519Y104120
X260270Y103191
X261665Y101284
X261544Y98769
X261736Y96415
X259184Y95841
X264686Y94153
X262264Y87595
X261359Y85413
X254390Y85453
X246515Y84862
X245843Y90100
X238294Y89986
X238035Y84955
X230768Y89069
X223415
X222009Y86732
X221418Y90827
X226699Y92794
X224057Y95441
X231654Y101019
X241218Y100197
X245650Y101926
X250001Y100822
X248511Y106238
X247970Y115213
X243610Y115374
X235311Y115553
X230749Y115374
X230153Y110396
X237339Y108046
X234554Y128224
X243377
X250552Y132362
X253229Y134764
X256990Y134046
X256142Y128425
X259383Y112308
X257574Y147367
X248751
X241576Y143228
X238898Y140827
X235138Y141545
X235985Y147165
X232744Y163283
X244157Y160378
X248517Y160217
X256817Y160037
X261379Y160217
X261974Y165195
X254788Y167544
X250910Y175393
X246477Y173664
X242127Y174769
X243616Y169353
X260473Y174571
X273559Y145393
X280237Y92008
X277126Y87618
X269371Y84610
X286836Y81131
X292310Y81064
X292009Y90787
X286955Y93938
X214135Y86865
X206662Y81142
X218568Y130198
X211891Y183583
X215001Y187972
X222757Y190981
X205291Y194459
X199817Y194526
X194319Y194334
X195064Y189931
X200119Y184803
X205172Y181652
X181379Y182874
X181379Y179035
X182742Y172892
X174637Y173628
X177579Y166929
X172447Y165490
Y162989
X171677Y156378
X168446Y151951
X170287Y148956
X173554Y149817
X177148Y149172
X181379Y150110
Y154969
X190092Y151879
X175134Y145393
X177084Y135735
X177197Y132293
X174082Y131457
X169655Y134882
X165405Y134774
X161332Y132019
X161910Y128583
X161948Y124796
X166975Y123854
X168572Y120498
X165110Y120204
X165405Y127561
X169406Y127681
X171272Y122499
X177452Y126319
X185738Y126635
X187371Y121642
X178347Y118110
X177976Y105523
X172629
X166094Y104120
X161845Y103191
X163240Y101284
X163119Y98769
X163310Y96415
X160758Y95841
X166261Y94153
X163839Y87595
X162934Y85413
X155965Y85453
X148090Y84862
X147417Y90100
X139869Y89986
X139610Y84955
X132343Y89069
X124990
X123583Y86732
X122993Y90827
X128274Y92794
X125631Y95441
X120640Y101962
X112535Y102699
X113899Y96555
X113898Y92716
X115709Y86865
X108237Y81142
X100959Y81256
X100213Y85660
X95460Y81064
X89986Y81131
X90105Y93938
X95158Y90787
X83387Y92008
X80276Y87618
X72520Y84610
X64509Y85413
X65414Y87595
X67835Y94153
X64885Y96415
X64694Y98769
X64815Y101284
X63420Y103191
X67669Y104120
X74204Y105523
X79551
X79922Y118110
X79027Y126319
X78772Y132293
X78659Y135735
X85533Y135957
X85357Y132531
X87313Y126635
X88946Y121642
X72847Y122499
X70147Y120498
X66685Y120204
X68550Y123854
X66979Y127561
X70981Y127681
X71230Y134882
X66979Y134774
X62907Y132019
X63485Y128583
X63522Y124796
X59292Y128425
X60139Y134046
X56379Y134764
X53702Y132362
X46526Y128224
X37704
X38460Y115553
X46760Y115374
X51120Y115213
X51661Y106238
X53150Y100822
X48800Y101926
X44367Y100197
X34804Y101019
X40489Y108046
X41444Y89986
X41185Y84955
X49664Y84862
X48992Y90100
X57540Y85453
X62333Y95841
X62533Y112308
X75656Y131457
X76709Y145393
X78723Y149172
X75129Y149817
X71862Y148956
X70021Y151951
X73252Y156378
X74022Y162989
Y165490
X79154Y166929
X76212Y173628
X84317Y172892
X82953Y179035
X82954Y182874
X81142Y188725
X73269Y188858
X71862Y186521
X73859Y184764
X68578Y182797
X71221Y180150
X64509Y186521
X56983Y185605
X57242Y190636
X48762Y190729
X49435Y185491
X49627Y173664
X45276Y174769
X46766Y169353
X47307Y160378
X51667Y160217
X59966Y160037
X64528Y160217
X65124Y165195
X57938Y167544
X54059Y175393
X63623Y174571
X60723Y147367
X51901
X44725Y143228
X42048Y140827
X38288Y141545
X35520Y143572
X34942Y147008
X34904Y150795
X39135Y147165
X35894Y163283
X35007Y172400
X36094Y179750
X40887Y190138
X88615Y194449
X95893Y194334
X96639Y189931
X101392Y194526
X106866Y194459
X106747Y181652
X101694Y184803
X113465Y183583
X116576Y187972
X124331Y190981
X132343Y190177
X131438Y187995
X129016Y181437
X131967Y179175
X132158Y176821
X132037Y174306
X133432Y172400
X129183Y171471
X122648Y170067
X117301
X116930Y157480
X117825Y149272
X118080Y143297
X118193Y139855
X111319Y139634
X111495Y143060
X109539Y148956
X107906Y153949
X124005Y153092
X126705Y155093
X130167Y155386
X128302Y151736
X129873Y148030
X125871Y147909
X125622Y140709
X129873Y140816
X133945Y143572
X133367Y147008
X133330Y150795
X137560Y147165
X136713Y141545
X140473Y140827
X143150Y143228
X150326Y147367
X159148
X158392Y160037
X162953Y160217
X163549Y165195
X156363Y167544
X152485Y175393
X148052Y173664
X143702Y174769
X145191Y169353
X145732Y160378
X150092Y160217
X134319Y163283
X134519Y179750
X139312Y190138
X147188Y190729
X147860Y185491
X155408Y185605
X155667Y190636
X162934Y186521
X170287
X171694Y188858
X172284Y184764
X167003Y182797
X169646Y180150
X162048Y174571
X179568Y188725
X187040Y194449
X183958Y135957
X183783Y132531
X158564Y134046
X154804Y134764
X152127Y132362
X157717Y128425
X144951Y128224
X136129
X124990Y126635
X121723Y125774
X118129Y126419
X113899Y125480
Y120622
X123600Y119213
X122830Y112602
Y110100
X117698Y108661
X131728Y110396
X132324Y115374
X136886Y115553
X145185Y115374
X149545Y115213
X150086Y106238
X151576Y100822
X147225Y101926
X142793Y100197
X133229Y101019
X138914Y108046
X160958Y112308
X170946Y84610
X178701Y87618
X181812Y92008
X188530Y93938
X188411Y81131
X126831Y123639
X120143Y130198
X121195Y144134
X100705Y143335
X94016Y145354
Y148386
X91666Y151879
X82953Y150110
Y154969
X93437Y141339
X96147Y132255
X102835Y130236
Y127205
X105186Y123711
X103415Y134252
X31447Y140816
X27197Y140709
X27446Y147909
X31447Y148030
X29876Y151736
X28280Y155093
X31742Y155386
X25580Y153092
X19400Y149272
X19655Y143297
X19768Y139855
X12894Y139634
X13069Y143060
X11114Y148956
X9481Y153949
X18505Y157480
X18876Y170067
X24223
X30758Y171471
X33612Y174306
X33733Y176821
X33542Y179175
X30591Y181437
X33013Y187995
X33918Y190177
X25906Y190981
X18151Y187972
X15040Y183583
X8322Y181652
X3269Y184803
X2967Y194526
X8441Y194459
X2279Y143335
X4990Y134252
X4410Y130236
Y127205
X6761Y123711
X15473Y125480
Y120622
X19704Y126419
X23298Y125774
X26565Y126635
X28406Y123639
X25175Y119213
X24405Y112602
Y110100
X19272Y108661
X22215Y101962
X14110Y102699
X15473Y96555
X15473Y92716
X17284Y86865
X25158Y86732
X26565Y89069
X24568Y90827
X29849Y92794
X27206Y95441
X33918Y89069
X33303Y110396
X33898Y115374
X21718Y130198
X22770Y144134
X9812Y81142
X2533Y81256
X1788Y85660
T02
X202835Y81732
X237459Y81559
X207312Y121419
X190867Y193858
X254669Y194032
X289292Y193858
X284816Y154172
X186391
X156244Y194032
X92442Y193858
X57818Y194032
X87966Y154172
X108886Y121419
X104410Y81732
X139034Y81559
X40608
X5985Y81732
X10461Y121419
T03
X190355Y98046
Y103046
Y108046
Y113046
X203347Y162544
Y167544
Y172544
Y177544
X213780
Y172544
Y167544
Y162544
X278347Y113046
Y108046
Y103046
Y98046
X288780
Y103046
Y108046
Y113046
X179922
Y108046
Y103046
Y98046
X91930
Y103046
Y108046
Y113046
X81497
Y108046
Y103046
Y98046
X104922Y162544
Y167544
Y172544
Y177544
X115355
Y172544
Y167544
Y162544
X16930
Y167544
Y172544
Y177544
X6497
Y172544
Y167544
Y162544
T04
X190355Y123517
Y128517
Y133517
X203347Y142073
Y147073
Y152073
X212993Y147073
Y142073
X279134Y133517
Y128517
X288780
Y133517
Y123517
X180709Y128517
Y133517
X114568Y142073
Y147073
X104922
Y142073
Y152073
X91930Y133517
Y128517
Y123517
X82284Y128517
Y133517
X16143Y142073
Y147073
X6497
Y142073
Y152073
M30
